# Blender v2.82 (sub 7) OBJ File: 'finish.blend'
# www.blender.org
mtllib finish.mtl
o Cube
v 0.023645 6.553720 -0.306392
v 0.023645 0.057949 -0.306392
v 0.023645 6.553720 0.000516
v 0.023645 0.057949 0.000516
v -0.432216 6.553720 -0.306392
v -0.432216 0.057949 -0.306392
v -0.432216 6.553720 0.000516
v -0.432216 0.057949 0.000516
vt 0.625000 0.500000
vt 0.875000 0.500000
vt 0.875000 0.750000
vt 0.625000 0.750000
vt 0.375000 0.750000
vt 0.625000 1.000000
vt 0.375000 1.000000
vt 0.375000 0.000000
vt 0.625000 0.000000
vt 0.625000 0.250000
vt 0.375000 0.250000
vt 0.125000 0.500000
vt 0.375000 0.500000
vt 0.125000 0.750000
vn 0.0000 1.0000 0.0000
vn 0.0000 0.0000 1.0000
vn -1.0000 0.0000 0.0000
vn 0.0000 -1.0000 0.0000
vn 1.0000 0.0000 0.0000
vn 0.0000 0.0000 -1.0000
usemtl Material
s off
f 1/1/1 5/2/1 7/3/1 3/4/1
f 4/5/2 3/4/2 7/6/2 8/7/2
f 8/8/3 7/9/3 5/10/3 6/11/3
f 6/12/4 2/13/4 4/5/4 8/14/4
f 2/13/5 1/1/5 3/4/5 4/5/5
f 6/11/6 5/10/6 1/1/6 2/13/6
o Cube.001
v 0.012674 6.543154 7.503183
v 0.012674 0.047382 7.503183
v 0.012674 6.543154 7.810092
v 0.012674 0.047382 7.810092
v -0.443187 6.543154 7.503183
v -0.443187 0.047382 7.503183
v -0.443187 6.543154 7.810092
v -0.443187 0.047382 7.810092
vt 0.625000 0.500000
vt 0.875000 0.500000
vt 0.875000 0.750000
vt 0.625000 0.750000
vt 0.375000 0.750000
vt 0.625000 1.000000
vt 0.375000 1.000000
vt 0.375000 0.000000
vt 0.625000 0.000000
vt 0.625000 0.250000
vt 0.375000 0.250000
vt 0.125000 0.500000
vt 0.375000 0.500000
vt 0.125000 0.750000
vn 0.0000 1.0000 0.0000
vn 0.0000 0.0000 1.0000
vn -1.0000 0.0000 0.0000
vn 0.0000 -1.0000 0.0000
vn 1.0000 0.0000 0.0000
vn 0.0000 0.0000 -1.0000
usemtl Material
s off
f 9/15/7 13/16/7 15/17/7 11/18/7
f 12/19/8 11/18/8 15/20/8 16/21/8
f 16/22/9 15/23/9 13/24/9 14/25/9
f 14/26/10 10/27/10 12/19/10 16/28/10
f 10/27/11 9/15/11 11/18/11 12/19/11
f 14/25/12 13/24/12 9/15/12 10/27/12
o Cube.002
v -0.185720 4.710995 -0.445144
v -0.167597 4.756058 7.855949
v -0.113170 6.489036 -0.454955
v -0.095047 6.534099 7.846139
v -0.346901 4.717573 -0.444828
v -0.328777 4.762636 7.856266
v -0.274350 6.495614 -0.454639
v -0.256227 6.540677 7.846455
vt 0.625000 0.500000
vt 0.875000 0.500000
vt 0.875000 0.750000
vt 0.625000 0.750000
vt 0.375000 0.750000
vt 0.625000 1.000000
vt 0.375000 1.000000
vt 0.375000 0.000000
vt 0.625000 0.000000
vt 0.625000 0.250000
vt 0.375000 0.250000
vt 0.125000 0.500000
vt 0.375000 0.500000
vt 0.125000 0.750000
vn -0.0022 -0.0054 -1.0000
vn 0.0408 0.9992 -0.0055
vn -0.9992 0.0408 0.0020
vn 0.0022 0.0054 1.0000
vn 0.9992 -0.0408 -0.0020
vn -0.0408 -0.9992 0.0055
usemtl Material
s off
f 17/29/13 21/30/13 23/31/13 19/32/13
f 20/33/14 19/32/14 23/34/14 24/35/14
f 24/36/15 23/37/15 21/38/15 22/39/15
f 22/40/16 18/41/16 20/33/16 24/42/16
f 18/41/17 17/29/17 19/32/17 20/33/17
f 22/39/18 21/38/18 17/29/18 18/41/18
o Finish_Text
v -0.301800 6.061288 4.157265
v -0.305481 6.059635 4.065354
v -0.320367 5.531941 4.075441
v -0.323965 6.051333 3.603798
v -0.327086 6.049932 3.525873
v -0.346313 5.368327 3.538903
v -0.342633 5.369980 3.630814
v -0.327831 5.894676 3.620784
v -0.324388 5.378174 4.086375
v -0.321028 5.379683 4.170294
v -0.333087 6.047236 3.376018
v -0.337008 6.045475 3.278112
v -0.356236 5.363871 3.291141
v -0.352315 5.365632 3.389047
v -0.341209 6.043589 3.173213
v -0.355772 6.037048 2.809563
v -0.375000 5.355444 2.822592
v -0.371079 5.357205 2.920498
v -0.362142 5.674021 2.914442
v -0.351499 5.678801 3.180186
v -0.349018 5.766749 3.178505
v -0.359661 5.761970 2.912761
v -0.354332 5.950860 2.909150
v -0.343690 5.955640 3.174894
vt 0.555556 0.000000
vt 0.333333 0.000000
vt 0.444444 0.000000
vt 0.777778 0.000000
vt 0.222222 0.000000
vt 0.000000 0.000000
vt 0.111111 0.000000
vt 1.000000 0.000000
vt 0.666667 0.000000
vt 0.888889 0.000000
vt 0.666667 0.000000
vt 0.000000 0.000000
vt 0.333333 0.000000
vt 1.000000 0.000000
vt 0.222222 0.000000
vt 0.888889 0.000000
vt 0.111111 0.000000
vt 0.000000 0.000000
vt 1.000000 0.000000
vt 0.777778 0.000000
vt 0.444444 0.000000
vt 0.666667 0.000000
vt 0.555556 0.000000
vt 0.333333 0.000000
vn -0.9988 0.0289 0.0395
usemtl None
s off
f 30/43/19 28/44/19 29/45/19
f 30/43/19 32/46/19 28/44/19
f 32/46/19 27/47/19 28/44/19
f 27/47/19 25/48/19 26/49/19
f 27/47/19 34/50/19 25/48/19
f 30/43/19 31/51/19 32/46/19
f 33/52/19 27/47/19 32/46/19
f 33/52/19 34/50/19 27/47/19
f 37/53/19 35/54/19 36/55/19
f 37/53/19 38/56/19 35/54/19
f 41/57/19 47/58/19 40/59/19
f 47/58/19 39/60/19 40/59/19
f 47/58/19 48/61/19 39/60/19
f 41/57/19 46/62/19 47/58/19
f 41/57/19 43/63/19 46/62/19
f 43/63/19 45/64/19 46/62/19
f 43/63/19 44/65/19 45/64/19
f 41/57/19 42/66/19 43/63/19
